Coordinates
version=1
nRows=17
nColumns=36
inDegrees=yes

Units are S.I. units (second, meters, Newtons, ...)
If the header above contains a line with 'inDegrees', this indicates whether rotational values are in degrees (yes) or radians (no).

endheader
time	pelvis_tilt	pelvis_list	pelvis_rotation	pelvis_tx	pelvis_ty	pelvis_tz	hip_flexion_r	hip_adduction_r	hip_rotation_r	knee_angle_r	knee_angle_r_beta	ankle_angle_r	subtalar_angle_r	mtp_angle_r	hip_flexion_l	hip_adduction_l	hip_rotation_l	knee_angle_l	knee_angle_l_beta	ankle_angle_l	subtalar_angle_l	mtp_angle_l	lumbar_extension	lumbar_bending	lumbar_rotation	arm_flex_r	arm_add_r	arm_rot_r	elbow_flex_r	pro_sup_r	arm_flex_l	arm_add_l	arm_rot_l	elbow_flex_l	pro_sup_l
      0.00000000	      2.53708104	      2.90956168	      2.78178816	     -0.22113497	      0.92080100	     -0.28754245	     24.59312525	     -3.44051394	     -3.90049997	      1.53504122	      0.02679152	      6.68093886	     -3.74138087	     -5.22557567	    -22.31990866	      4.55385530	      2.91237702	      9.07866911	      0.15845267	     15.11034431	     -0.64505923	     -5.22557567	     -6.35272410	     -3.26173574	     -9.03711792	    -10.58847306	     -1.18463896	    -23.68672482	     29.29747933	    112.45629784	     12.30349833	     -9.20007294	      3.09805860	     47.11382400	    108.39220101
      0.01000000	      2.63807218	      2.59286957	      2.86572739	     -0.20601425	      0.91988951	     -0.28610738	     24.34906433	     -2.97158169	     -4.29664278	      2.48699686	      0.04340628	      6.16966711	     -4.78033003	     -5.24717254	    -22.73681641	      3.97221235	      2.62490436	     10.17044164	      0.17750769	     14.24685674	     -0.71941162	     -5.24717254	     -6.28938347	     -2.82013013	     -8.85511517	    -10.81723956	     -1.25407487	    -23.79612466	     29.08414258	    112.38779016	     11.75420776	     -8.79041759	      2.82466149	     47.22070097	    108.39337625
      0.02000000	      2.54837801	      2.26149131	      2.81430449	     -0.19088931	      0.91875464	     -0.28432787	     24.19431575	     -2.34751978	     -3.42373256	      3.14062188	      0.05481419	      3.67828729	     -8.53992209	     -5.38238741	    -22.88049359	      3.41501469	      2.11454178	     11.36437990	      0.19834585	     13.42833513	     -0.63626600	     -5.38238741	     -6.00621307	     -2.39798983	     -9.05033516	    -10.73692476	     -1.31676213	    -24.03543498	     28.76099533	    112.19164883	     10.59057405	     -8.27677078	      1.04437454	     47.98777834	    108.48875935
      0.03000000	      2.58218081	      1.90543600	      2.82712466	     -0.17556110	      0.91796476	     -0.28271934	     24.10131037	     -1.82501619	     -3.92093250	      4.27187431	      0.07455827	      2.78451098	     -9.31264167	     -5.40370434	    -23.06513502	      2.80685375	      1.67342096	     12.70151981	      0.22168334	     12.28431380	     -0.72931188	     -5.40370434	     -5.82938039	     -1.91033733	     -8.81451680	    -10.98051901	     -1.41840904	    -24.11709044	     28.57813386	    112.15510880	      9.96362470	     -7.86105447	      0.75604326	     47.96151626	    108.49248292
      0.04000000	      2.45218238	      1.47478574	      2.76365263	     -0.16004904	      0.91721152	     -0.28089733	     24.14625641	     -1.19056065	     -4.10623731	      5.33092958	      0.09304227	      1.08999368	    -10.54190866	     -5.43627692	    -22.92242123	      2.13907591	      1.07225526	     14.27176205	      0.24908924	     10.93334646	     -0.90562348	     -5.43627692	     -5.42302074	     -1.35076263	     -8.67519539	    -11.14885338	     -1.51524741	    -24.31050486	     28.42013150	    112.09535905	      9.09537466	     -7.38515102	      0.01275683	     47.89269812	    108.47000068
      0.05000000	      2.31789543	      1.00591644	      2.61294827	     -0.14448249	      0.91673468	     -0.27885123	     23.97930637	     -0.39796498	     -3.22995425	      5.98592438	      0.10447409	     -2.12312861	    -13.79290458	     -5.56123489	    -22.64315119	      1.47228898	      0.55546980	     16.03147002	      0.27980194	      9.45717366	     -1.17151310	     -5.56123489	     -5.02340816	     -0.74355915	     -8.69648822	    -11.12935271	     -1.64739452	    -24.55310582	     28.19376478	    112.01903771	      7.93648711	     -6.78454768	     -1.57558443	     48.14876332	    108.62203575
      0.06000000	      2.26607204	      0.46759576	      2.44144333	     -0.12867355	      0.91670359	     -0.27679672	     23.89195667	      0.34556781	     -3.53158411	      7.10389500	      0.12398636	     -3.34025791	    -13.95961041	     -5.58493921	    -22.25262688	      0.70240965	     -0.17100826	     18.08900860	      0.31571276	      7.57868435	     -1.39784955	     -5.58493921	     -4.67754255	     -0.03321506	     -8.36244712	    -11.34082818	     -1.80339920	    -24.62236435	     28.11722837	    112.00132419	      7.12359246	     -6.35863416	     -1.90727551	     47.70323378	    108.59968209
      0.07000000	      2.18683493	     -0.10849470	      2.22682221	     -0.11283101	      0.91694668	     -0.27466639	     23.80122161	      1.13645370	     -3.61980305	      8.25633441	      0.14410022	     -4.55399438	    -14.29831720	     -5.60668983	    -21.61065724	     -0.11316553	     -0.96107912	     20.46714573	      0.35721908	      5.34912238	     -1.77702934	     -5.60668983	     -4.30916730	      0.71078081	     -8.01255876	    -11.53310999	     -1.98766240	    -24.74962881	     28.07615951	    111.97787567	      6.27182061	     -5.88061657	     -2.40759663	     47.12566153	    108.54543489
      0.08000000	      1.98886102	     -0.66439328	      1.90245709	     -0.09709248	      0.91733417	     -0.27239943	     23.76276331	      1.98995602	     -3.03355240	      9.31719022	      0.16261565	     -6.63244613	    -16.17017421	     -5.71873895	    -20.67225738	     -0.81673632	     -1.52432008	     23.01103988	      0.40161841	      2.36689128	     -3.18248824	     -5.71873895	     -3.78642088	      1.44485172	     -7.66743548	    -11.65672207	     -2.13340723	    -25.12293838	     28.10569139	    111.95465730	      5.32575513	     -5.25106202	     -3.51482288	     46.44461106	    108.67029710
      0.09000000	      1.98791407	     -1.35721106	      1.57574749	     -0.08141685	      0.91820829	     -0.27005312	     23.53619333	      2.93545960	     -2.97210502	     10.57801369	      0.18462117	     -7.01065969	    -16.34229790	     -5.74178843	    -19.65996436	     -1.82336594	     -2.53183575	     25.99051124	      0.45362000	     -0.44920823	     -3.51908723	     -5.74178843	     -3.53878569	      2.33428567	     -7.18396775	    -11.79798537	     -2.35477276	    -25.18184536	     28.15308050	    111.95996918	      4.51906731	     -4.79467309	     -3.90038927	     45.64150019	    108.61754420
      0.10000000	      1.89859642	     -2.05801447	      1.17340116	     -0.06596317	      0.91915938	     -0.26771577	     23.39375160	      3.91335224	     -2.73570084	     11.89089843	      0.20753533	     -7.15224184	    -16.74057101	     -5.76768834	    -18.32757155	     -2.81998713	     -3.43242855	     29.24463020	      0.51041509	     -3.76877196	     -4.36805725	     -5.76768834	     -3.20969338	      3.25766503	     -6.61395385	    -11.93769371	     -2.61471453	    -25.27523180	     28.30204624	    111.97007416	      3.75968290	     -4.24891115	     -4.42850165	     44.60284238	    108.54954026
      0.11000000	      1.84312679	     -2.58700308	      0.74768543	     -0.05102710	      0.92032848	     -0.26550811	     23.19533038	      4.72555444	     -2.29656120	     13.21554703	      0.23065481	     -7.20085145	    -17.43160936	     -5.83067505	    -16.80852059	     -3.54192248	     -3.89959616	     32.68296626	      0.57042537	     -7.94688032	     -6.58553979	     -5.83067505	     -2.99344306	      3.98989241	     -5.92402512	    -12.07637118	     -2.80711803	    -25.50042726	     28.64089066	    112.00136353	      3.22810512	     -3.69162942	     -5.04346898	     43.28264960	    108.59990789
      0.12000000	      1.95298245	     -3.40740461	      0.33089881	     -0.03625960	      0.92180124	     -0.26309654	     22.64657452	      5.88305851	     -1.98130037	     14.26220678	      0.24892247	     -6.67949531	    -17.80425074	     -5.85281100	    -15.27075656	     -4.80296204	     -4.75030232	     36.39637690	      0.63523661	    -11.37087975	     -7.05169036	     -5.85281100	     -3.03651988	      5.03707824	     -5.29154055	    -12.05243936	     -3.09038870	    -25.52202672	     28.84968483	    112.02699577	      2.57581194	     -3.28182055	     -5.35994203	     42.28484659	    108.56465105
      0.13000000	      1.94765989	     -3.96312610	     -0.10512655	     -0.02215755	      0.92323330	     -0.26095685	     22.23430253	      6.75086776	     -1.53755388	     15.30675702	      0.26715331	     -6.22606794	    -18.25881178	     -5.91597314	    -13.43314464	     -5.58947223	     -4.99409643	     40.10378744	      0.69994313	    -15.67221660	     -9.46718595	     -5.91597314	     -3.00955268	      5.79150152	     -4.47909328	    -12.13794340	     -3.32731361	    -25.59864512	     29.36993665	    112.08101903	      2.26455368	     -2.80134336	     -5.73842100	     40.67156919	    108.65502725
      0.14000000	      2.13038993	     -4.70470748	     -0.48396418	     -0.00829213	      0.92499473	     -0.25875784	     21.37721193	      7.83937584	     -1.13343167	     15.90257056	      0.27755222	     -5.48596714	    -18.59267291	     -5.93332455	    -11.68673921	     -6.74787835	     -5.35442340	     43.88885527	      0.76600503	    -18.39552604	     -9.79441258	     -5.93332455	     -3.28263772	      6.72762404	     -3.84433444	    -11.94114896	     -3.63460868	    -25.53310645	     29.63324135	    112.11100193	      1.74324497	     -2.44696170	     -5.99465091	     39.61159642	    108.60942298
      0.15000000	      2.16860823	     -5.15957076	     -0.83539427	      0.00493466	      0.92667378	     -0.25686213	     20.67559366	      8.59355807	     -0.63822773	     16.44651103	      0.28704577	     -5.01331858	    -18.92651361	     -6.01693059	     -9.65197925	     -7.38047562	     -5.18386428	     47.50384864	      0.82909857	    -21.58293332	    -12.12861825	     -6.01693059	     -3.41390340	      7.33576855	     -3.03982898	    -11.91075950	     -3.88263009	    -25.40471941	     30.23056234	    112.15346168	      1.63664218	     -2.12354953	     -6.13625999	     37.73027790	    108.79351149
      0.16000000	      2.31253852	     -5.64954560	     -1.07811655	      0.01788688	      0.92860244	     -0.25505844	     19.66954927	      9.36606023	     -0.21371079	     16.61350819	      0.28996042	     -4.35965150	    -19.17286910	     -6.03898366	     -7.64973895	     -8.12644229	     -4.93427231	     51.04572695	      0.89091600	    -22.71292707	    -12.75619697	     -6.03898366	     -3.72632284	      7.94852831	     -2.50478419	    -11.59670544	     -4.16815966	    -25.20393521	     30.57781946	    112.19303700	      1.30950793	     -1.87292899	     -6.44188312	     36.40564316	    108.72639388
